<?xml version="1.0" encoding="utf-8"?>
<!-- Generator: Adobe Illustrator 21.1.0, SVG Export Plug-In . SVG Version: 6.00 Build 0)  -->
<svg version="1.1" id="Layer_1" xmlns="http://www.w3.org/2000/svg" xmlns:xlink="http://www.w3.org/1999/xlink" x="0px" y="0px"
	 viewBox="0 0 504.6 1462.1" style="enable-background:new 0 0 504.6 1462.1;" xml:space="preserve">
<style type="text/css">
	.st0{fill:#C36F0B;}
	.st1{fill:#B65A18;}
	.st2{fill:#3F4D79;}
	.st3{fill:#3CBFD4;}
	.st4{fill:none;stroke:#FFFFFF;stroke-width:4;stroke-miterlimit:10;}
	.st5{fill:#FFFFFF;stroke:#3F4D79;stroke-width:6;stroke-linecap:round;stroke-miterlimit:10;}
	.st6{fill:#FFB000;}
	.st7{fill:none;stroke:#B65A18;stroke-width:3;stroke-linecap:round;stroke-miterlimit:10;}
	.st8{fill:#FE7523;}
	.st9{opacity:0.5;}
	.st10{fill:#FFFFFF;}
	.st11{fill:#FFFFFF;stroke:#84D7EC;stroke-width:5;stroke-miterlimit:10;}
	.st12{fill:none;stroke:#FFB000;stroke-width:3;stroke-miterlimit:10;}
	.st13{fill:none;stroke:#3F4D79;stroke-width:6;stroke-linecap:round;stroke-miterlimit:10;}
	.st14{fill:#FFFFFF;stroke:#3CBFD4;stroke-width:6;stroke-miterlimit:10;}
</style>
<g id="Layer_2">
	<g id="Слой_1">
		<g id="_1">
			<g id="RIGHT_FOOT">
				<g id="FOOT">
					<path id="FOOT-2" class="st0" d="M103.3,1325.1c-4.9,24.1-13.4,47.4-25.1,69c-15.2,27.8-71.4,54.9-68.3,55.6
						s118.7,10.8,128.1-4.1c7.1-11.4-6.7-24.1-6.6-40.6c0.2-20.3,29.3-62.3,37.2-77.7L103.3,1325.1z"/>
					<path id="SHADOW" class="st1" d="M103.3,1325.1l65.2,2.3c-2.7,5.3-8,13.9-13.8,23.7c-19.6-2.8-41.6-11.9-53.3-17.3
						C102.7,1328.3,103.3,1325.1,103.3,1325.1z"/>
				</g>
				<g id="SHOES">
					<path class="st2" d="M5.3,1451.4c0-18.8,47.8-36,47.8-36l29.4,36H5.3z"/>
					<path class="st2" d="M73.2,1390.4h55.7c2.3,0,4.2,1.9,4.2,4.2v2.3c0,0.9-0.3,1.7-0.8,2.4c3.9,7.2,17,33.9,5.7,52H88.1
						c0,0,7.9-37.9,31.3-50.2H73.2c-2.3,0-4.2-1.9-4.2-4.2v-2.3C69,1392.3,70.9,1390.4,73.2,1390.4z"/>
					<path class="st3" d="M145.1,1455.6v2.3c0,2.3-1.9,4.2-4.2,4.2H4.2c-2.3,0-4.2-1.9-4.2-4.2l0-2.3c0-2.3,1.9-4.2,4.2-4.2h136.7
						C143.2,1451.4,145.1,1453.3,145.1,1455.6z"/>
				</g>
			</g>
			<g id="LEFT_FOOT">
				<g id="FOOT-3">
					<path id="FOOT-4" class="st0" d="M407.1,1327.5c0,0,7.5,43.2,6.8,66.7s-57.4,54.9-54.3,55.6c3.1,0.7,104.1,11.6,107.8-5.6
						c3.4-16.2-9.1-27.8-13.6-43.7c-4.5-15.9,8-60.1,11.5-73L407.1,1327.5z"/>
					<path id="SHADOW-2" class="st1" d="M462.3,1338.5c-9.3,3.5-31,10.5-52.2,8.5c-1.6-11.3-3-19.6-3-19.6h58.2
						C464.6,1330,463.6,1333.9,462.3,1338.5z"/>
				</g>
				<g id="SHOES-2">
					<path class="st2" d="M343.8,1451.3c0,0,5.9-11.5,16.5-16.9c10.9-5.5,20.7-8.3,41-3.1c18.5,4.7,31.6,20.7,31.6,20.7
						L343.8,1451.3z"/>
					<path class="st2" d="M412.4,1390.4h45.1c2.3,0,3.2,1.9,3.2,4.2v2.3c0,2.1-0.7,3.8-2.5,4.2c4.6,6.6,20.9,32.5,9.5,50.8h-34.3
						c0,0-1-40.9,18.7-50.7h-39.7c-2.3,0-4.2-1.9-4.2-4.2v-2.3C408.1,1392.3,410,1390.4,412.4,1390.4z"/>
					<path class="st3" d="M473.7,1455.6v2.3c0,2.3-1.9,4.2-4.2,4.2H342.3c-2.3,0-4.2-1.9-4.2-4.2v-2.3c0-2.3,1.9-4.2,4.2-4.2h127.1
						C471.8,1451.4,473.7,1453.3,473.7,1455.6z"/>
				</g>
			</g>
			<g id="PANTS">
				<path class="st3" d="M148.2,1054c34.8-270.8,83.3-445.3,91.3-506.8c98,10.5,135.4-10.1,140.2-13.1l0.5-0.3
					c52.7,46.2,93.5,104.5,93.5,209.5c0,99.4-19.2,245.8-20.8,267.3c-2.5,34.2,61,121.1,48.5,313.8c0,0-40.1,15.2-114.1,1
					c0,0-23.2-207.8-28-243c-2.4-17.7-17-118.4-31.7-217.3c-29.2,68.6-66.8,127.6-66.8,159.5c0,180.5-28.1,262.7-44.8,302.8
					c0,0-62.9,14.2-123-5.1C93.1,1322.3,132,1180.2,148.2,1054z"/>
				<path id="_Контур_" class="st4" d="M327.1,885.3c-10.2-69-17.2-121.4-24.8-169.5"/>
			</g>
			<g id="RIGHT_HAND_MICROPHONE">
				<path id="ARM" class="st0" d="M43.9,239.5c0.4,5.3,1.9,10.5,4.6,15.1c1.9,3.1,7.3,14.4,8.8,17.3c3.7,7,7.7,23.1,6.1,28.9
					C59.6,314.8,51,318,44,318.9c-9.9,1.3-29.6-2.6-41.3-11.1c-3.7-2.8,1.7-12,1.7-12c-1.4-2.3-0.2-7,2.7-10.4c0,0-2.4-5.2,2.3-10.7
					c-0.9-3.2-0.6-6.7,0.7-9.7c3-6.4,20.9-1.2,23.4-0.9c4.9,0.6,0.8-7,0.6-11.6C33.7,239.5,43.9,239.5,43.9,239.5z"/>
				<path id="HAND" class="st0" d="M242.8,322.6c-4.2,25-46.6,190.7-97.3,187.4C76.6,505.6,41.4,317.4,41.4,317.4S56.1,296,60,297
					s82.2,123.4,82.2,123.4s51.3-158.4,74.7-165.7C242.9,246.6,248.6,287.9,242.8,322.6z"/>
				<g id="MICROPHONE">
					<path class="st2" d="M62.6,120.3c0-10.4,9.2-18.8,20.4-18.8h8c11.3,0,20.4,8.4,20.4,18.8v46.4l-48.8,0.2V120.3z M107.7,120.3
						c0-8.4-7.5-15.2-16.8-15.2h-8c-9.3,0-16.8,6.8-16.8,15.2v42.9l41.5-0.2V120.3z"/>
					<path class="st3" d="M68.9,127.9c0-10.6,8.6-19.2,19.2-19.2h4.5c0,0,0,0,0,0c10.6,0,19.2,8.6,19.2,19.2v81.8
						c0,0.7-0.1,1.4-0.3,2.1c-0.8,2.6-2.9,4.6-5.5,5.3c-0.6,0.1-1.2,0.2-1.8,0.2H76.5c0,0,0,0,0,0c-4.2,0-7.6-3.4-7.6-7.6V127.9
						C68.9,127.9,68.9,127.9,68.9,127.9z"/>
					<rect x="100.6" y="128.3" class="st2" width="11.2" height="3.6"/>
					<rect x="100.6" y="138.6" class="st2" width="11.2" height="3.6"/>
					<rect x="100.6" y="148.9" class="st2" width="11.2" height="3.6"/>
					<path class="st2" d="M31.3,376.1c-1.5,0-2.7-1.2-2.7-2.7v-235c0-1.5,1.2-2.7,2.7-2.7c1.5,0,2.7,1.2,2.7,2.7v235
						C34,374.9,32.8,376.1,31.3,376.1L31.3,376.1z"/>
					<rect x="22" y="373.4" class="st5" width="19.5" height="1085.7"/>
					<polygon class="st2" points="99.7,170.8 111.9,181.9 111.9,186.9 97.2,173.5 					"/>
					<polygon class="st2" points="90.6,172.5 111.9,192 111.9,196.9 88.1,175.2 					"/>
					<polygon class="st2" points="79.6,172.5 111.9,202 111.9,207 77.1,175.2 					"/>
					<path class="st2" d="M69.6,173.3l42,38.4c-0.3,1.2-1,2.3-1.9,3.2l-40.8-37.3v-3.6L69.6,173.3z"/>
					<path class="st2" d="M106.1,217.1c-0.6,0.1-1.2,0.2-1.8,0.2h-3.4l-32-29.3v-4.9L106.1,217.1z"/>
					<polygon class="st2" points="95.4,217.3 89.9,217.3 68.9,198.1 68.9,193.1 					"/>
					<polygon class="st2" points="84.4,217.3 79,217.3 68.9,208.1 68.9,203.1 					"/>
					<path class="st6" d="M62.6,166.2c0.3-1.4,1.3-2.6,2.7-3c0.4-0.1,0.8-0.2,1.2-0.2h47.2c2.2,0,4,1.8,4,4v4.8c0,2.2-1.8,4-4,4
						H66.6c-0.4,0-0.8-0.1-1.2-0.2c-1.4-0.4-2.4-1.6-2.7-3H25.8v-6.4L62.6,166.2z"/>
				</g>
				<g id="FINGERS">
					<path class="st0" d="M16.1,264.8c-0.8,3,17.7,5.9,20.8,7c3.4,1.2,3.1,7.1,0.3,9.1c0,4.9-1.6,10.5-3.2,11.2
						c3.7,2.4-0.5,10.8-3,10.2c-0.8-0.1-1.7-0.2-2.5-0.4c1.8,0.5,3.8,1.6,3.4,3.9c-1.1,7.3-4.7,7.6-21.1,2.5L16.1,264.8z"/>
					<path class="st7" d="M16.1,264.8c2.9,1.1,17.7,5.9,20.8,7c4.4,1.6,2.6,11.2-3.2,9.6c-7.7-1.4-15.3-3.6-22.6-6.4"/>
					<path class="st7" d="M33.7,281.4c6.8,2.2,1.9,11.8-0.9,10.9c0,0-4.4-0.3-23.5-6.7"/>
					<path class="st7" d="M30.9,292c6.6,0.9,2.9,11,0.2,10.3c0,0-6.5-0.3-24.5-6.7"/>
					<path class="st7" d="M10.9,308.4c16.4,5.1,20,4.8,21.1-2.5c0.6-4.1-6.1-4.3-6.1-4.3"/>
				</g>
			</g>
			<g id="TOP">
				<path class="st8" d="M213.3,353.6c18.3-62.7-4-86.3-3.4-92.8c1.5-15.1,41-28.8,48.8-37.2c3.2-3.4,2.1-12.1-0.3-21.3
					c0,0,30.3,2.8,68.6-26.4l0.1-0.1c1.7,4.4,3.7,8.7,6,12.9c11.1,18.9,66.8,30.8,90.9,42.6c18,8.7,15.6,78.8-5.9,140.1
					c-24.7,70.5-38.6,162.3-38.6,162.3c-24.7,30.6-136.8,33.1-140.1,13.6s-17.1-117.3-17.1-117.3C194.3,410.5,201.2,395,213.3,353.6
					z"/>
				<g class="st9">
					<path class="st10" d="M300.9,192l90.5,26.9c12.6,4.4,24.5,8.4,32.7,12.4c1,0.5,2,1.2,2.8,2l-131.1-39
						C297.5,193.6,299.2,192.8,300.9,192z"/>
					<path class="st10" d="M267.2,202l167.2,49.7c0.2,1.3,0.4,2.6,0.6,4l-176.3-52.4c-0.1-0.3-0.2-0.7-0.3-1
						C261.4,202.4,264.3,202.4,267.2,202z"/>
					<path class="st10" d="M260.4,219.9l175.7,52.3c0,1.3,0,2.5,0,3.8L259,223.3C259.7,222.3,260.2,221.2,260.4,219.9z"/>
					<path class="st10" d="M241.6,234.3l193.7,57.6c-0.1,1.2-0.2,2.5-0.3,3.7l-197.9-58.9C238.6,236,240.2,235.1,241.6,234.3z"/>
					<path class="st10" d="M219.6,247.8l213.5,63.5c-0.2,1.2-0.4,2.4-0.6,3.6l-216.3-64.3C217.3,249.6,218.4,248.7,219.6,247.8z"/>
					<path class="st10" d="M425.2,348.9c-0.3,1.2-0.7,2.3-1,3.5l-204.9-61c-0.2-1.4-0.5-2.7-0.7-4L425.2,348.9z"/>
					<path class="st10" d="M429.7,330.2c-0.2,1.2-0.5,2.4-0.8,3.6l-216-64.2c-0.7-1.7-1.3-3.1-1.8-4.4L429.7,330.2z"/>
					<path class="st10" d="M220.6,308l199.1,59.2c-0.4,1.2-0.8,2.3-1.2,3.5l-198-58.9C220.5,310.5,220.6,309.3,220.6,308z"/>
					<path class="st10" d="M219.1,327.6l194.4,57.8l-1.1,3.5l-193.9-57.7C218.7,330,218.9,328.8,219.1,327.6z"/>
					<path class="st10" d="M215.3,346.4L408,403.7c-0.3,1.2-0.7,2.3-1,3.5L214.4,350C214.7,348.8,215,347.6,215.3,346.4z"/>
					<path class="st10" d="M210,364.8l192.9,57.4c-0.3,1.2-0.6,2.4-0.9,3.5l-193-57.4C209.3,367.2,209.6,366,210,364.8z"/>
					<path class="st10" d="M205,383.3l193.2,57.5c-0.3,1.2-0.6,2.4-0.9,3.6l-193.2-57.5C204.4,385.7,204.6,384.5,205,383.3z"/>
					<path class="st10" d="M393.8,459.5c-0.3,1.2-0.5,2.4-0.8,3.6l-189.4-56.3c-0.3-1.3-0.5-2.7-0.6-4L393.8,459.5z"/>
					<path class="st10" d="M389.8,478.3c-0.2,1.2-0.5,2.4-0.7,3.6l-166.3-49.4c-0.2-1.6-0.4-2.5-0.4-2.5c-1.2-0.8-2.3-1.6-3.3-2.4
						L389.8,478.3z"/>
					<path class="st10" d="M386,497.1c-0.2,1.2-0.5,2.4-0.7,3.6l-159.6-47.4c-0.2-1.4-0.4-2.7-0.6-4L386,497.1z"/>
					<path class="st10" d="M382.5,516.1l-0.6,3.6l-153.1-45.5c-0.2-1.4-0.4-2.7-0.6-4L382.5,516.1z"/>
					<path class="st10" d="M378.5,534.9c-0.9,1-1.9,2-3,2.9l-143.8-42.7c-0.2-1.4-0.4-2.7-0.6-4L378.5,534.9z"/>
					<path class="st10" d="M356.7,548.4c-1.9,0.7-3.8,1.4-5.8,2.1L234.8,516c-0.2-1.3-0.4-2.7-0.6-4L356.7,548.4z"/>
					<path class="st10" d="M319.8,557.4c-3,0.4-6,0.8-9.1,1.1l-72.8-21.7l-0.6-4L319.8,557.4z"/>
				</g>
			</g>
			<g id="PAPER">
				<path class="st11" d="M27.9,452.8c0.4,0,0.9,0,1.4,0h114.8c0.9,0,1.8,0,2.6,0.1c6.9,0.4,13.6,2.4,19.6,5.9
					c-2.7-1.2-5.6-1.9-8.6-1.9c-11.5,0-20.8,9.3-20.8,20.8H9c-0.3-1.4-0.4-2.7-0.4-4.1C8.5,462.6,17,453.6,27.9,452.8z"/>
				<path class="st11" d="M137,477.6c0-3,0.6-5.9,1.9-8.6c4.7-10.4,17.1-15.1,27.5-10.3c2.2,1.3,4.4,2.8,6.4,4.5
					c4.3,3.6,7.8,8,10.4,13L242,587.4c6.3,12,18.8,19.5,32.3,19.5H156c-13.5,0-26-7.5-32.3-19.5L65.6,477.7L137,477.6z"/>
			</g>
			<path id="LEFT_HAND" class="st0" d="M392.2,304.5c6.2,32.4,46.5,136.8,46.5,136.8c-12.2,3-164.6,108-164.6,108
				s-24-11.7-30.3-12.7s-25.6,0.6-25.6,0.6s9.5,17,1.2,19.5s-26.3,2.8-37.1-10.3c-6.8-8.3-15.1-6.8-15.1-6.8s21,44.5,29.3,46.4
				s52,1.4,91.8-10.8c136.3-41.5,216.4-89.4,216.4-118.7c0-90.4-59.4-214-76.9-220.8C406.4,227.4,384.3,264,392.2,304.5z"/>
			<g id="HEAD">
				<path id="NECK" class="st1" d="M307.5,122.8l1.2-0.4c1.3,4.2,10.6,34.1,18.4,53.4l-0.1,0.1c-38.3,29.2-68.6,26.4-68.6,26.4
					c-2.6-9.5-5.9-18.9-9.8-28L307.5,122.8z"/>
				<path id="HEAD-2" class="st0" d="M294.6,146.8c3.4-6.4,10.8-44,10.3-68.9S265.7,51,243.3,57.4s-31.5,51.3-31.5,65.9
					s11.5,55.7,25.2,55.7C263.3,179,291.2,153.1,294.6,146.8z"/>
				<g id="HAIR">
					<path class="st6" d="M299.5,105.7c4.3-1.8,14.5-0.7,9.3,16.1c-6.4,20.5,7.5,24.5,7.5,24.5s-1.7-20.2,21.8-39.2
						c10.4-8.4,27.6-14.7,27.4-31.5c-0.3-21.4-20.5-24.6-20.5-24.6c3.9-48.1-30.3-47.5-49.8-36.8c-15.7,8.5-10.7-9.3-24.9-10.3
						c-27.3-2-30.3,21-44.5,10.3c-9.5-7.2,1-14.2,1-14.2c-16.6-2-31.2,12.7-34.2,29.3c-2.3,12.8,2.4,41,32.8,45.5
						s45.4-20.6,66.8-9.8C308.6,73.5,289.2,110.1,299.5,105.7z"/>
					<path class="st12" d="M369.1,62.6C364.5,43.1,344,50.2,344,50.2"/>
					<path class="st12" d="M183.2,39.8c-1.4,13,11.7,43.1,42.4,43.2c27.6,0.1,45.8-28.1,67.8-18.7"/>
				</g>
				<g id="HEADPHONES">
					<path class="st13" d="M344.3,23.7C344.3,23.7,344.4,23.7,344.3,23.7c4.3,1.8,6.3,6.7,4.5,11l-27.8,65.7"/>
					<path class="st14" d="M335.8,127.3l-4.7,14.1c-3.6,10.9-15.4,16.8-26.3,13.1l-6.4-2.1c-10.9-3.6-16.8-15.4-13.1-26.3l4.7-14.1
						c3.6-10.9,15.4-16.8,26.3-13.1l6.4,2.1C333.5,104.7,339.4,116.4,335.8,127.3z"/>
				</g>
			</g>
		</g>
	</g>
</g>
</svg>
